<svg xmlns="http://www.w3.org/2000/svg" height="800" width="1200" viewBox="-58.64655 -46.043 508.2701 276.258"><path d="M390.977 42.152c0-2.881-1.604-6.789-9.245-9.04-5.246-1.545-11.604-1.87-16.01-1.87-16.308 0-33.584 4.829-47.4 13.257-13.99 8.533-22.014 19.197-22.014 29.259 0 4.344 2.241 18.514 31.077 18.514 18.05 0 34.695-4.863 53.975-15.768a2.473 2.473 0 001.257-2.097 2.474 2.474 0 00-1.169-2.146l-3.25-2.022a2.49 2.49 0 00-1.33-.377c-.382 0-.77.087-1.11.259-14.723 7.265-27.584 10.797-39.312 10.797-9.9 0-16.555-2.685-16.555-6.679 0-2.519.35-4.687 1.09-6.765 21.58-1.146 69.996-5.892 69.996-25.322zm-30.6-2.163c2.51 0 4.514.375 5.814 1.086 1.063.589 1.204 1.137 1.204 1.547 0 9.214-20.896 15.251-42.215 16.656 5.693-7.052 20.031-19.289 35.196-19.289zm-233.024 19.23a3.712 3.712 0 00-3.178-1.8H92.408l9.407-19.192c4.477-9.5 9.542-20.241 28.526-20.241 3.665 0 7.342.917 10.902 1.803 3.668.914 7.115 1.769 10.658 1.769 3.736 0 7.236-1.623 9.866-4.576 2.103-2.362 3.41-5.287 3.41-7.633 0-5.94-6.46-9.349-17.726-9.349-13.945 0-28.864 4.593-38.179 8.89-33.01 14.954-42.402 31.265-51.967 48.528H29.36c-1.388 0-2.645.76-3.276 1.984l-3.757 7.3a3.644 3.644 0 00.135 3.561 3.712 3.712 0 003.14 1.746h25.002L.345 177.912a3.642 3.642 0 00.68 4.077l1.03 1.064a3.713 3.713 0 003.22 1.076l20.892-3.208a3.701 3.701 0 002.698-1.917L84.993 72.01h35.072a3.671 3.671 0 003.21-1.875l4.115-7.289a3.636 3.636 0 00-.037-3.627z" fill="#DA1F26"/><path d="M293.148 72.256l-3.26-2.021a2.535 2.535 0 00-2.438-.116c-14.716 7.265-27.573 10.797-39.313 10.797-9.899 0-16.55-2.685-16.55-6.679 0-2.533.345-4.701 1.086-6.765 21.58-1.145 70.008-5.891 70.008-25.321 0-9.848-17.674-10.91-25.27-10.91-34.382 0-69.405 21.454-69.405 42.516 0 4.344 2.238 18.514 31.073 18.514 18.053 0 34.704-4.863 53.98-15.768a2.461 2.461 0 001.257-2.1 2.489 2.489 0 00-1.168-2.147zm-21.084-32.267c4.075 0 7.034 1.109 7.034 2.634 0 9.214-20.902 15.251-42.225 16.656 5.69-7.053 20.024-19.29 35.191-19.29z" fill="#DA1F26"/><path d="M214.317 50.445c8.656 0 12.25-7.335 12.25-11.262 0-2.438-1.258-6.525-9.69-6.525-8.573 0-20.143 6.213-34.432 18.483l2.241-4.133c2.331-4.386 2.63-6.233 2.63-7.356 0-3.191-2.086-6.994-12.03-6.994-12.216 0-30.56 11.866-36.596 16.441a2.464 2.464 0 00-.98 2.045c.022.79.436 1.529 1.1 1.975l3.027 2.016a2.512 2.512 0 002.745.026c2.783-1.774 12.315-7.564 18.16-7.564 1.02 0 1.52.294 1.73.469a.763.763 0 01.185.217c-.053.985-1.186 3.632-2.427 5.654-.046.08-18.2 32.521-18.38 32.847-.255.386-.792 1.211-.792 2.306 0 4.556 9.826 4.606 9.928 4.606 6.973 0 9.473-.32 10.541-2.214 0 0 .171-.308 4.174-7.584 8.004-12.639 23.627-33.93 38.021-33.93 1.3 0 2.655.114 4.091.23 1.485.123 3.01.247 4.504.247z" fill="#DA1F26"/><path d="M157.81 116.636c-7.675 0-14.704 3.489-19.267 9.453-4.57-5.837-11.54-9.252-19.106-9.252-13.353 0-24.216 10.769-24.216 24.001v22.275c0 .953.781 1.728 1.74 1.728h6.573c.963 0 1.742-.774 1.742-1.728v-22.275c0-7.736 6.351-14.032 14.162-14.032 7.796 0 14.145 6.287 14.158 14.014v22.294c0 .953.78 1.728 1.745 1.728h6.573c.958 0 1.74-.774 1.74-1.728v-22.535c.032-7.713 6.37-13.976 14.157-13.976 7.79 0 14.128 6.263 14.157 13.974v22.333c0 .953.781 1.727 1.742 1.727h6.575c.965 0 1.742-.773 1.742-1.727v-22.275c0-13.231-10.865-23.999-24.217-23.999zm75.92 23.913c-.133-13.113-10.966-23.761-24.213-23.761-13.254 0-24.09 10.66-24.21 23.785-.005.037-.005.074-.005.11v.105c0 .037 0 .077.004.112.12 13.124 10.957 23.785 24.211 23.785 13.255 0 24.096-10.661 24.213-23.785.005-.035.005-.075.005-.112v-.104c0-.045 0-.09-.006-.135zm-24.213 14.17c-7.78 0-14.13-6.275-14.154-13.988.023-7.702 6.374-13.976 14.154-13.976s14.133 6.273 14.156 13.987c-.023 7.702-6.376 13.977-14.156 13.977zm76.451-14.17c-.13-13.113-10.967-23.761-24.215-23.761-5.152 0-10.063 1.586-14.156 4.524v-13.001c0-.952-.78-1.725-1.742-1.725h-6.574c-.964 0-1.744.772-1.744 1.725v31.921c0 .06.005.12.014.179-.003.049-.005.1-.009.147 0 .042-.005.086-.005.125 0 .014 0 .029.005.053-.005.016-.005.034-.005.052 0 .037.005.077.005.112.118 13.124 10.957 23.785 24.212 23.785 13.258 0 24.097-10.661 24.215-23.785.003-.035.003-.075.003-.112v-.024c.004-.027.004-.052.004-.08 0-.045-.005-.09-.008-.135zm-24.215 14.17c-7.78 0-14.129-6.275-14.154-13.988.025-7.702 6.373-13.976 14.154-13.976 7.784 0 14.133 6.273 14.16 13.987-.027 7.702-6.376 13.977-14.16 13.977zm70.763-.006c-7.734-.04-14.047-6.315-14.07-13.982 0-.099.002-.207.006-.314l.004-.047c0-.046.003-.09.003-.137 0-.081-.007-.16-.019-.237v-31.684c0-.952-.778-1.725-1.739-1.725h-6.575c-.962 0-1.742.772-1.742 1.725v31.921c0 .06.004.12.012.179-.005.049-.005.1-.008.147 0 .042-.004.086-.004.125v.105c0 .039.003.077.004.112.118 13.072 10.913 23.731 24.113 23.785h.007a1.75 1.75 0 001.23-.507 1.72 1.72 0 00.511-1.222v-6.516a1.737 1.737 0 00-1.733-1.728zm-33.206-31.77h-6.577c-.962 0-1.74.772-1.74 1.725v38.446c0 .953.778 1.728 1.74 1.728h6.576c.962 0 1.74-.774 1.74-1.728v-38.446c0-.953-.778-1.725-1.74-1.725zm-3.092-16.497c-2.88 0-5.227 2.324-5.227 5.178 0 2.856 2.346 5.181 5.227 5.181 2.881 0 5.227-2.324 5.227-5.181 0-2.854-2.346-5.178-5.227-5.178zm82.609 35.513h3.488c.472 0 .92-.185 1.248-.519a1.72 1.72 0 00.495-1.248c-.155-6.286-2.742-12.172-7.28-16.57-4.544-4.406-10.558-6.834-16.919-6.834-13.257 0-24.097 10.66-24.21 23.785-.007.037-.007.074-.007.11v.105c0 .039 0 .077.007.112.113 13.124 10.953 23.785 24.21 23.785 9.96 0 19.031-6.187 22.605-15.403a1.74 1.74 0 00.142-.684c0-.954-.78-1.725-1.742-1.725h-7.26c-.62 0-1.198.323-1.51.857-2.53 4.308-7.22 6.987-12.235 6.987-7.364 0-13.449-5.619-14.1-12.76h33.067zm-18.967-15.204c4.364 0 8.38 1.952 11.031 5.238h-22.064c2.652-3.286 6.666-5.238 11.033-5.238z" fill="#6D6E71"/></svg>
